


<?xml version="1.0" encoding="utf-8"?>
<svg xmlns="http://www.w3.org/2000/svg" xmlns:xlink="http://www.w3.org/1999/xlink" style="margin: auto; background: rgb(255, 255, 255); display: block; shape-rendering: crispedges;" width="200px" height="200px" viewBox="0 0 100 100" preserveAspectRatio="xMidYMid">
<g transform="rotate(0 50 50)">
  <rect x="49.5" y="28" rx="0.5" ry="0.74" width="1" height="2" fill="#fe718d">
    <animate attributeName="opacity" values="1;0" keyTimes="0;1" dur="0.41152263374485604s" begin="-0.39866255144032925s" repeatCount="indefinite"></animate>
  </rect>
</g><g transform="rotate(11.25 50 50)">
  <rect x="49.5" y="28" rx="0.5" ry="0.74" width="1" height="2" fill="#fe718d">
    <animate attributeName="opacity" values="1;0" keyTimes="0;1" dur="0.41152263374485604s" begin="-0.3858024691358025s" repeatCount="indefinite"></animate>
  </rect>
</g><g transform="rotate(22.5 50 50)">
  <rect x="49.5" y="28" rx="0.5" ry="0.74" width="1" height="2" fill="#fe718d">
    <animate attributeName="opacity" values="1;0" keyTimes="0;1" dur="0.41152263374485604s" begin="-0.3729423868312758s" repeatCount="indefinite"></animate>
  </rect>
</g><g transform="rotate(33.75 50 50)">
  <rect x="49.5" y="28" rx="0.5" ry="0.74" width="1" height="2" fill="#fe718d">
    <animate attributeName="opacity" values="1;0" keyTimes="0;1" dur="0.41152263374485604s" begin="-0.360082304526749s" repeatCount="indefinite"></animate>
  </rect>
</g><g transform="rotate(45 50 50)">
  <rect x="49.5" y="28" rx="0.5" ry="0.74" width="1" height="2" fill="#fe718d">
    <animate attributeName="opacity" values="1;0" keyTimes="0;1" dur="0.41152263374485604s" begin="-0.34722222222222227s" repeatCount="indefinite"></animate>
  </rect>
</g><g transform="rotate(56.25 50 50)">
  <rect x="49.5" y="28" rx="0.5" ry="0.74" width="1" height="2" fill="#fe718d">
    <animate attributeName="opacity" values="1;0" keyTimes="0;1" dur="0.41152263374485604s" begin="-0.33436213991769553s" repeatCount="indefinite"></animate>
  </rect>
</g><g transform="rotate(67.5 50 50)">
  <rect x="49.5" y="28" rx="0.5" ry="0.74" width="1" height="2" fill="#fe718d">
    <animate attributeName="opacity" values="1;0" keyTimes="0;1" dur="0.41152263374485604s" begin="-0.32150205761316875s" repeatCount="indefinite"></animate>
  </rect>
</g><g transform="rotate(78.75 50 50)">
  <rect x="49.5" y="28" rx="0.5" ry="0.74" width="1" height="2" fill="#fe718d">
    <animate attributeName="opacity" values="1;0" keyTimes="0;1" dur="0.41152263374485604s" begin="-0.308641975308642s" repeatCount="indefinite"></animate>
  </rect>
</g><g transform="rotate(90 50 50)">
  <rect x="49.5" y="28" rx="0.5" ry="0.74" width="1" height="2" fill="#fe718d">
    <animate attributeName="opacity" values="1;0" keyTimes="0;1" dur="0.41152263374485604s" begin="-0.2957818930041153s" repeatCount="indefinite"></animate>
  </rect>
</g><g transform="rotate(101.25 50 50)">
  <rect x="49.5" y="28" rx="0.5" ry="0.74" width="1" height="2" fill="#fe718d">
    <animate attributeName="opacity" values="1;0" keyTimes="0;1" dur="0.41152263374485604s" begin="-0.2829218106995885s" repeatCount="indefinite"></animate>
  </rect>
</g><g transform="rotate(112.5 50 50)">
  <rect x="49.5" y="28" rx="0.5" ry="0.74" width="1" height="2" fill="#fe718d">
    <animate attributeName="opacity" values="1;0" keyTimes="0;1" dur="0.41152263374485604s" begin="-0.27006172839506176s" repeatCount="indefinite"></animate>
  </rect>
</g><g transform="rotate(123.75 50 50)">
  <rect x="49.5" y="28" rx="0.5" ry="0.74" width="1" height="2" fill="#fe718d">
    <animate attributeName="opacity" values="1;0" keyTimes="0;1" dur="0.41152263374485604s" begin="-0.25720164609053503s" repeatCount="indefinite"></animate>
  </rect>
</g><g transform="rotate(135 50 50)">
  <rect x="49.5" y="28" rx="0.5" ry="0.74" width="1" height="2" fill="#fe718d">
    <animate attributeName="opacity" values="1;0" keyTimes="0;1" dur="0.41152263374485604s" begin="-0.24434156378600827s" repeatCount="indefinite"></animate>
  </rect>
</g><g transform="rotate(146.25 50 50)">
  <rect x="49.5" y="28" rx="0.5" ry="0.74" width="1" height="2" fill="#fe718d">
    <animate attributeName="opacity" values="1;0" keyTimes="0;1" dur="0.41152263374485604s" begin="-0.2314814814814815s" repeatCount="indefinite"></animate>
  </rect>
</g><g transform="rotate(157.5 50 50)">
  <rect x="49.5" y="28" rx="0.5" ry="0.74" width="1" height="2" fill="#fe718d">
    <animate attributeName="opacity" values="1;0" keyTimes="0;1" dur="0.41152263374485604s" begin="-0.21862139917695475s" repeatCount="indefinite"></animate>
  </rect>
</g><g transform="rotate(168.75 50 50)">
  <rect x="49.5" y="28" rx="0.5" ry="0.74" width="1" height="2" fill="#fe718d">
    <animate attributeName="opacity" values="1;0" keyTimes="0;1" dur="0.41152263374485604s" begin="-0.20576131687242802s" repeatCount="indefinite"></animate>
  </rect>
</g><g transform="rotate(180 50 50)">
  <rect x="49.5" y="28" rx="0.5" ry="0.74" width="1" height="2" fill="#fe718d">
    <animate attributeName="opacity" values="1;0" keyTimes="0;1" dur="0.41152263374485604s" begin="-0.19290123456790126s" repeatCount="indefinite"></animate>
  </rect>
</g><g transform="rotate(191.25 50 50)">
  <rect x="49.5" y="28" rx="0.5" ry="0.74" width="1" height="2" fill="#fe718d">
    <animate attributeName="opacity" values="1;0" keyTimes="0;1" dur="0.41152263374485604s" begin="-0.1800411522633745s" repeatCount="indefinite"></animate>
  </rect>
</g><g transform="rotate(202.5 50 50)">
  <rect x="49.5" y="28" rx="0.5" ry="0.74" width="1" height="2" fill="#fe718d">
    <animate attributeName="opacity" values="1;0" keyTimes="0;1" dur="0.41152263374485604s" begin="-0.16718106995884777s" repeatCount="indefinite"></animate>
  </rect>
</g><g transform="rotate(213.75 50 50)">
  <rect x="49.5" y="28" rx="0.5" ry="0.74" width="1" height="2" fill="#fe718d">
    <animate attributeName="opacity" values="1;0" keyTimes="0;1" dur="0.41152263374485604s" begin="-0.154320987654321s" repeatCount="indefinite"></animate>
  </rect>
</g><g transform="rotate(225 50 50)">
  <rect x="49.5" y="28" rx="0.5" ry="0.74" width="1" height="2" fill="#fe718d">
    <animate attributeName="opacity" values="1;0" keyTimes="0;1" dur="0.41152263374485604s" begin="-0.14146090534979425s" repeatCount="indefinite"></animate>
  </rect>
</g><g transform="rotate(236.25 50 50)">
  <rect x="49.5" y="28" rx="0.5" ry="0.74" width="1" height="2" fill="#fe718d">
    <animate attributeName="opacity" values="1;0" keyTimes="0;1" dur="0.41152263374485604s" begin="-0.12860082304526751s" repeatCount="indefinite"></animate>
  </rect>
</g><g transform="rotate(247.5 50 50)">
  <rect x="49.5" y="28" rx="0.5" ry="0.74" width="1" height="2" fill="#fe718d">
    <animate attributeName="opacity" values="1;0" keyTimes="0;1" dur="0.41152263374485604s" begin="-0.11574074074074076s" repeatCount="indefinite"></animate>
  </rect>
</g><g transform="rotate(258.75 50 50)">
  <rect x="49.5" y="28" rx="0.5" ry="0.74" width="1" height="2" fill="#fe718d">
    <animate attributeName="opacity" values="1;0" keyTimes="0;1" dur="0.41152263374485604s" begin="-0.10288065843621401s" repeatCount="indefinite"></animate>
  </rect>
</g><g transform="rotate(270 50 50)">
  <rect x="49.5" y="28" rx="0.5" ry="0.74" width="1" height="2" fill="#fe718d">
    <animate attributeName="opacity" values="1;0" keyTimes="0;1" dur="0.41152263374485604s" begin="-0.09002057613168725s" repeatCount="indefinite"></animate>
  </rect>
</g><g transform="rotate(281.25 50 50)">
  <rect x="49.5" y="28" rx="0.5" ry="0.74" width="1" height="2" fill="#fe718d">
    <animate attributeName="opacity" values="1;0" keyTimes="0;1" dur="0.41152263374485604s" begin="-0.0771604938271605s" repeatCount="indefinite"></animate>
  </rect>
</g><g transform="rotate(292.5 50 50)">
  <rect x="49.5" y="28" rx="0.5" ry="0.74" width="1" height="2" fill="#fe718d">
    <animate attributeName="opacity" values="1;0" keyTimes="0;1" dur="0.41152263374485604s" begin="-0.06430041152263376s" repeatCount="indefinite"></animate>
  </rect>
</g><g transform="rotate(303.75 50 50)">
  <rect x="49.5" y="28" rx="0.5" ry="0.74" width="1" height="2" fill="#fe718d">
    <animate attributeName="opacity" values="1;0" keyTimes="0;1" dur="0.41152263374485604s" begin="-0.051440329218107005s" repeatCount="indefinite"></animate>
  </rect>
</g><g transform="rotate(315 50 50)">
  <rect x="49.5" y="28" rx="0.5" ry="0.74" width="1" height="2" fill="#fe718d">
    <animate attributeName="opacity" values="1;0" keyTimes="0;1" dur="0.41152263374485604s" begin="-0.03858024691358025s" repeatCount="indefinite"></animate>
  </rect>
</g><g transform="rotate(326.25 50 50)">
  <rect x="49.5" y="28" rx="0.5" ry="0.74" width="1" height="2" fill="#fe718d">
    <animate attributeName="opacity" values="1;0" keyTimes="0;1" dur="0.41152263374485604s" begin="-0.025720164609053502s" repeatCount="indefinite"></animate>
  </rect>
</g><g transform="rotate(337.5 50 50)">
  <rect x="49.5" y="28" rx="0.5" ry="0.74" width="1" height="2" fill="#fe718d">
    <animate attributeName="opacity" values="1;0" keyTimes="0;1" dur="0.41152263374485604s" begin="-0.012860082304526751s" repeatCount="indefinite"></animate>
  </rect>
</g><g transform="rotate(348.75 50 50)">
  <rect x="49.5" y="28" rx="0.5" ry="0.74" width="1" height="2" fill="#fe718d">
    <animate attributeName="opacity" values="1;0" keyTimes="0;1" dur="0.41152263374485604s" begin="0s" repeatCount="indefinite"></animate>
  </rect>
</g>
<!-- [ldio] generated by https://loading.io/ --></svg>