<?xml version="1.0" encoding="iso-8859-1"?>
<!-- Generator: Adobe Illustrator 19.0.0, SVG Export Plug-In . SVG Version: 6.00 Build 0)  -->
<svg version="1.1" id="Layer_1" xmlns="http://www.w3.org/2000/svg" xmlns:xlink="http://www.w3.org/1999/xlink" x="0px" y="0px"
	 viewBox="0 0 512 512" style="enable-background:new 0 0 512 512;" xml:space="preserve">
<path style="fill:#F1B559;" d="M437.019,74.981C388.667,26.628,324.379,0,256,0S123.333,26.628,74.981,74.981S0,187.621,0,256
	s26.628,132.667,74.981,181.019S187.621,512,256,512s132.667-26.628,181.019-74.981S512,324.379,512,256
	S485.372,123.333,437.019,74.981z"/>
<path style="fill:#EDA637;" d="M437.019,74.981C388.667,26.628,324.379,0,256,0v512c68.379,0,132.667-26.628,181.019-74.981
	S512,324.379,512,256S485.372,123.333,437.019,74.981z"/>
<circle style="fill:#FDF7D0;" cx="256" cy="256" r="204.361"/>
<path style="fill:#F9ED9D;" d="M256,51.639v408.721c112.865,0,204.361-91.495,204.361-204.361S368.865,51.639,256,51.639z"/>
<path style="fill:#C27526;" d="M273.292,234.395c2.129,1.923,5.207,2.374,7.798,1.144l185.669-87.756
	c9.638-4.555,13.191-16.477,7.608-25.558c-10.427-16.958-22.916-32.812-37.347-47.244c-21.369-21.369-45.854-38.485-72.426-50.941
	c-9.573-4.487-20.934,0.223-24.488,10.181l-68.74,192.532C270.402,229.455,271.163,232.472,273.292,234.395z"/>
<path style="fill:#A3CE4C;" d="M244.47,180.758c-9.102,0-16.481-7.379-16.481-16.481c0-8.482-6.9-15.382-15.382-15.382
	c-8.482,0-15.382,6.9-15.382,15.382c0,9.102-7.379,16.481-16.481,16.481s-16.481-7.379-16.481-16.481
	c0-26.657,21.686-48.343,48.343-48.343s48.343,21.686,48.343,48.343C260.951,173.379,253.573,180.758,244.47,180.758z"/>
<path style="fill:#97C94D;" d="M244.398,400.177c-12.034,0-23.475-4.41-32.445-12.555c-9.56-8.681-15.167-20.565-15.787-33.463
	c-0.438-9.092,6.577-16.817,15.669-17.254c9.092-0.455,16.817,6.577,17.254,15.669c0.198,4.104,1.982,7.884,5.023,10.647
	c3.042,2.762,6.974,4.17,11.081,3.977c4.104-0.198,7.885-1.982,10.647-5.023c2.762-3.042,4.174-6.977,3.976-11.081
	c-0.438-9.092,6.576-16.817,15.668-17.255c9.113-0.463,16.818,6.576,17.255,15.668c0.622,12.899-3.817,25.267-12.497,34.827
	c-8.681,9.56-20.565,15.167-33.463,15.788C245.983,400.159,245.188,400.177,244.398,400.177z"/>
<path style="fill:#F7603E;" d="M385.203,341.608c-5.302,0-10.507-2.553-13.69-7.283c-5.08-7.553-3.076-17.794,4.476-22.873
	c7.037-4.734,8.911-14.312,4.177-21.349s-14.31-8.911-21.349-4.177c-7.554,5.079-17.795,3.075-22.873-4.476
	c-5.08-7.553-3.076-17.794,4.476-22.873c22.119-14.879,52.217-8.989,67.095,13.13c14.878,22.118,8.989,52.216-13.13,67.095
	C391.565,340.699,388.366,341.608,385.203,341.608z"/>
<path style="fill:#EA9277;" d="M137.617,306.276c-4.218,0-8.436-1.608-11.653-4.828c-9.131-9.131-14.159-21.271-14.159-34.183
	c0-12.913,5.029-25.053,14.159-34.184c6.435-6.436,16.871-6.436,23.307,0s6.436,16.871,0,23.307
	c-2.905,2.906-4.505,6.768-4.505,10.877c0,4.108,1.6,7.971,4.505,10.876c6.436,6.436,6.436,16.871,0,23.307
	C146.053,304.667,141.835,306.276,137.617,306.276z"/>
<path style="fill:#E5BF2B;" d="M270.215,302.828c-4.849,0-9.65-2.129-12.904-6.218c-5.284-6.635-14.979-7.737-21.615-2.456
	c-7.122,5.669-17.489,4.49-23.159-2.63c-5.668-7.122-4.49-17.489,2.63-23.159c20.856-16.602,51.33-13.14,67.931,7.716
	c5.669,7.121,4.492,17.489-2.63,23.159C277.435,301.655,273.811,302.828,270.215,302.828z"/>
<g>
</g>
<g>
</g>
<g>
</g>
<g>
</g>
<g>
</g>
<g>
</g>
<g>
</g>
<g>
</g>
<g>
</g>
<g>
</g>
<g>
</g>
<g>
</g>
<g>
</g>
<g>
</g>
<g>
</g>
</svg>
